<?xml version="1.0" encoding="UTF-8"?>
<svg xmlns="http://www.w3.org/2000/svg" width="500" height="245" viewBox="0 0 500 245">

  <style>text { font-family: Arial, sans-serif; }</style>
  <defs>
    <linearGradient id="funnel" x1="0%" y1="0%" x2="0%" y2="100%">
      <stop offset="0%" style="stop-color:#E8F4FD"/>
      <stop offset="100%" style="stop-color:#B3D9F2"/>
    </linearGradient>
  </defs>
  <path d="M60,10 L440,10 L440,50 Q440,60 430,65 L320,130 Q310,135 310,145 L310,190 L190,190 L190,145 Q190,135 180,130 L70,65 Q60,60 60,50 Z" fill="url(#funnel)" stroke="#0089A7" stroke-width="2"/>
  <text x="120" y="35" font-size="11" fill="#0066CC" font-weight="bold">CellTypist</text>
  <text x="230" y="30" font-size="11" fill="#003B4F" font-weight="bold">SingleR</text>
  <text x="320" y="35" font-size="11" fill="#0066CC" font-weight="bold">ScType</text>
  <text x="140" y="55" font-size="10" fill="#006633">SCINA</text>
  <text x="220" y="55" font-size="10" fill="#006633">PopV</text>
  <text x="290" y="55" font-size="10" fill="#006633">Azimuth</text>
  <text x="370" y="42" font-size="10" fill="#006633">ScANVI</text>
  <text x="160" y="75" font-size="10" fill="#999">ScArches</text>
  <text x="250" y="80" font-size="10" fill="#999">Clustifyr</text>
  <text x="320" y="70" font-size="10" fill="#999">Garnett</text>
  <text x="200" y="100" font-size="10" fill="#999">ML</text>
  <rect x="175" y="195" width="150" height="35" rx="6" fill="#00526B"/>
  <text x="250" y="217" text-anchor="middle" font-size="13" fill="white" font-weight="bold">Consensus Label</text>

</svg>